<svg xmlns="http://www.w3.org/2000/svg" viewBox="0 0 360 620" fill="none">
  <path d="M147 594c36-96 48-186 43-273-4-71 7-135 41-191 23-38 30-73 17-104" stroke="#fff" stroke-width="13" stroke-linecap="round"/>
  <path d="M191 323c58-52 96-115 112-190-50 33-86 78-108 137M188 363c66-38 112-89 139-154-59 21-104 58-137 112M183 404c66-25 116-63 151-117-59 10-108 36-148 78M177 446c61-13 111-40 151-82-54 1-102 16-145 45M168 489c53-2 100-18 140-48-46-7-89-1-128 18" stroke="#fff" stroke-width="11" stroke-linecap="round"/>
  <path d="M193 279c-37-43-55-93-54-149 36 28 56 66 60 113M190 325c-48-36-78-83-91-139 45 20 76 54 91 101M187 370c-54-27-92-66-114-117 48 11 85 38 110 80M181 415c-56-17-99-47-129-91 48 3 89 22 123 57M174 461c-53-8-98-28-135-62 44-4 85 7 122 34M164 509c-45 0-85-11-121-34 36-9 72-5 106 12" stroke="#fff" stroke-width="11" stroke-linecap="round"/>
  <path d="M246 29c-46-15-91 3-108 42-13 30-1 64 26 79 26 15 60 8 77-15 14-19 12-46-4-62-15-16-41-18-58-4-14 11-17 33-7 47" stroke="#fff" stroke-width="12" stroke-linecap="round"/>
  <path d="M225 47c-43-1-78 25-91 65M252 67c-38 8-65 32-79 68M259 94c-28 7-51 24-68 50" stroke="#fff" stroke-width="8" stroke-linecap="round"/>
</svg>
